<svg width="87" height="17" viewBox="0 0 87 17" fill="none" xmlns="http://www.w3.org/2000/svg">
<path d="M4.44906 6.54C5.4224 6.07333 6.32906 5.84 7.16906 5.84C8.00906 5.84 8.6024 6.00667 8.94906 6.34C9.34906 6.63333 9.54906 7 9.54906 7.44C9.54906 7.78667 9.43573 8.09333 9.20906 8.36C8.71573 8.89333 7.94906 9.16 6.90906 9.16C6.4824 9.16 6.00906 9.06667 5.48906 8.88C4.96906 8.68 4.5224 8.44 4.14906 8.16C3.01573 8.93333 2.44906 9.98 2.44906 11.3C2.44906 12.1933 2.8424 13.02 3.62906 13.78C4.41573 14.5267 5.4824 14.9 6.82906 14.9C8.18906 14.9 9.23573 14.6133 9.96906 14.04C10.7024 13.4667 11.1691 13.18 11.3691 13.18C11.7424 13.18 11.9291 13.3533 11.9291 13.7C11.9291 13.9933 11.7157 14.34 11.2891 14.74C10.8624 15.14 10.2424 15.5 9.42906 15.82C8.62906 16.14 7.8024 16.3 6.94906 16.3C5.06906 16.3 3.57573 15.8067 2.46906 14.82C1.38906 13.82 0.849063 12.7067 0.849063 11.48C0.849063 9.69333 1.62906 8.28667 3.18906 7.26C2.45573 6.51333 2.08906 5.57333 2.08906 4.44C2.08906 3.30667 2.53573 2.4 3.42906 1.72C4.33573 1.04 5.35573 0.699999 6.48906 0.699999C7.6224 0.699999 8.61573 0.913332 9.46906 1.34C10.3224 1.75333 10.7491 2.21333 10.7491 2.72C10.7491 3.04 10.6157 3.25333 10.3491 3.36C10.2691 3.37333 10.1491 3.38 9.98906 3.38C9.8424 3.38 9.61573 3.28 9.30906 3.08C8.4424 2.42667 7.56906 2.1 6.68906 2.1C5.8224 2.1 5.1024 2.30667 4.52906 2.72C3.88906 3.12 3.56906 3.74 3.56906 4.58C3.56906 5.40667 3.8624 6.06 4.44906 6.54ZM5.46906 7.34L5.24906 7.44C5.71573 7.78667 6.3024 7.96 7.00906 7.96C7.71573 7.96 8.06906 7.79333 8.06906 7.46C8.06906 7.18 7.7424 7.04 7.08906 7.04C6.43573 7.04 5.89573 7.14 5.46906 7.34ZM13.9408 10.12L16.0808 10.18L18.2208 10.12C18.2608 10.12 18.2941 10.12 18.3208 10.12C18.6008 10.12 18.7874 10.2 18.8808 10.36C18.9874 10.52 19.0408 10.66 19.0408 10.78C19.0408 10.9 18.9874 11.04 18.8808 11.2C18.7874 11.36 18.6008 11.44 18.3208 11.44C18.2941 11.44 18.2608 11.44 18.2208 11.44L16.0808 11.38L13.9408 11.44C13.9008 11.44 13.8674 11.44 13.8408 11.44C13.5608 11.44 13.3674 11.36 13.2608 11.2C13.1674 11.04 13.1208 10.9 13.1208 10.78C13.1208 10.66 13.1674 10.52 13.2608 10.36C13.3674 10.2 13.5608 10.12 13.8408 10.12C13.8674 10.12 13.9008 10.12 13.9408 10.12ZM23.9305 8.84L23.9905 5.44C23.9905 3.26667 23.4971 2.18 22.5105 2.18C22.2305 2.18 22.0038 2.26667 21.8305 2.44C21.6571 2.6 21.5771 2.77333 21.5905 2.96C21.6038 3.13333 21.6638 3.28 21.7705 3.4C21.8505 3.45333 21.9905 3.52 22.1905 3.6C22.6171 3.77333 22.8305 4.01333 22.8305 4.32C22.8305 4.78667 22.5771 5.02 22.0705 5.02C21.5638 5.02 21.1238 4.82 20.7505 4.42C20.3905 4.00667 20.2105 3.51333 20.2105 2.94C20.2105 2.36667 20.4105 1.85333 20.8105 1.4C21.2105 0.933333 21.7438 0.699999 22.4105 0.699999C23.6905 0.699999 24.5438 1.14667 24.9705 2.04C25.3438 2.77333 25.5305 3.85333 25.5305 5.28C25.5171 6.05333 25.4905 7.21333 25.4505 8.76C25.4505 10.6133 25.6305 12.0867 25.9905 13.18C26.3505 14.26 26.8438 14.8 27.4705 14.8C27.9105 14.8 28.3038 14.42 28.6505 13.66C29.0105 12.9 29.4505 11.6267 29.9705 9.84C30.4905 8.04 30.9438 6.46 31.3305 5.1C31.9305 2.91333 32.2505 1.76667 32.2905 1.66C32.4771 1.1 32.7705 0.819999 33.1705 0.819999C33.4238 0.819999 33.6105 0.906665 33.7305 1.08C33.8638 1.25333 33.9305 1.43333 33.9305 1.62C33.9305 1.80667 33.7371 2.50667 33.3505 3.72C32.9771 4.92 32.4105 6.8 31.6505 9.36C30.9038 11.9067 30.3371 13.5733 29.9505 14.36C29.3105 15.6533 28.4438 16.3 27.3505 16.3C26.2571 16.3 25.4105 15.6533 24.8105 14.36C24.2238 13.0533 23.9305 11.2133 23.9305 8.84ZM40.0353 7C39.1553 7 38.4153 7.33333 37.8153 8C37.2286 8.65333 36.842 9.42 36.6553 10.3C37.3753 10.5133 38.182 10.62 39.0753 10.62C39.982 10.62 40.7086 10.4667 41.2553 10.16C41.802 9.85333 42.0753 9.43333 42.0753 8.9C42.0753 8.36667 41.8886 7.92 41.5153 7.56C41.1553 7.18667 40.662 7 40.0353 7ZM39.1753 11.88C38.482 11.88 37.6353 11.78 36.6353 11.58C36.7153 12.5267 37.062 13.3333 37.6753 14C38.302 14.6667 39.0286 15 39.8553 15C40.682 15 41.362 14.8 41.8953 14.4C42.4286 13.9867 42.7753 13.78 42.9353 13.78C43.1086 13.78 43.242 13.8333 43.3353 13.94C43.442 14.0333 43.4953 14.1533 43.4953 14.3C43.4953 14.6733 43.1086 15.1 42.3353 15.58C41.5753 16.06 40.7486 16.3 39.8553 16.3C38.4686 16.3 37.362 15.8133 36.5353 14.84C35.722 13.8533 35.2886 12.68 35.2353 11.32C34.5286 11.0933 34.1753 10.7467 34.1753 10.28C34.1753 9.97333 34.2886 9.77333 34.5153 9.68C34.5953 9.65333 34.6953 9.64 34.8153 9.64C34.9486 9.64 35.1286 9.7 35.3553 9.82C35.662 8.60667 36.2153 7.62 37.0153 6.86C37.8286 6.08667 38.7753 5.7 39.8553 5.7C40.9486 5.7 41.8286 6 42.4953 6.6C43.162 7.2 43.4953 7.98667 43.4953 8.96C43.4953 9.92 43.082 10.6467 42.2553 11.14C41.4286 11.6333 40.402 11.88 39.1753 11.88ZM54.3966 9.7L54.2966 12.84V13.7C54.3232 14.2467 54.4566 14.5733 54.6966 14.68C54.7899 14.7067 54.8966 14.7333 55.0166 14.76C55.1366 14.7733 55.2166 14.7933 55.2566 14.82C55.3099 14.8467 55.3366 14.9 55.3366 14.98C55.3366 15.3267 55.2232 15.62 54.9966 15.86C54.7832 16.0867 54.5299 16.2 54.2366 16.2C53.7432 16.2 53.3966 16.0067 53.1966 15.62C52.9966 15.2333 52.8966 14.64 52.8966 13.84L52.9766 10.16C52.9766 9.24 52.7766 8.50667 52.3766 7.96C51.9899 7.4 51.4566 7.12 50.7766 7.12C50.0966 7.12 49.4366 7.5 48.7966 8.26C48.1699 9.00667 47.7232 9.86667 47.4566 10.84L47.5166 15.18C47.5166 15.86 47.2632 16.2 46.7566 16.2C46.1432 16.2 45.8366 15.7467 45.8366 14.84C45.8366 13.92 45.9699 12.5867 46.2366 10.84C46.2366 10.28 46.1766 9.49333 46.0566 8.48C45.9499 7.46667 45.8966 6.85333 45.8966 6.64C45.8966 6.42667 45.9699 6.23333 46.1166 6.06C46.2632 5.88667 46.4499 5.8 46.6766 5.8C46.9032 5.8 47.0899 5.88667 47.2366 6.06C47.3832 6.23333 47.4566 6.42 47.4566 6.62C47.4566 6.82 47.4499 7.12 47.4366 7.52C47.4366 7.92 47.4366 8.19333 47.4366 8.34C48.4099 6.64667 49.6099 5.8 51.0366 5.8C52.1032 5.8 52.9299 6.18667 53.5166 6.96C54.1032 7.72 54.3966 8.63333 54.3966 9.7ZM64.5386 11.44V8.26C63.7519 7.48667 62.8053 7.1 61.6986 7.1C60.8586 7.1 60.1119 7.49333 59.4586 8.28C58.8053 9.05333 58.4786 9.97333 58.4786 11.04C58.4786 12.0933 58.7119 13.0067 59.1786 13.78C59.6453 14.5267 60.2786 14.9 61.0786 14.9C62.4786 14.9 63.6319 13.7467 64.5386 11.44ZM65.3786 0.799999C66.0319 0.799999 66.3586 1.34 66.3586 2.42C66.3586 2.83333 66.3319 3.31333 66.2786 3.86L66.0386 6.48C65.8919 8.10667 65.8053 9.08667 65.7786 9.42C65.7786 11.1667 65.8386 12.4733 65.9586 13.34C66.0919 14.1933 66.3253 14.6533 66.6586 14.72C67.0053 14.72 67.1786 14.82 67.1786 15.02C67.1786 15.3133 67.0786 15.5867 66.8786 15.84C66.6919 16.08 66.4186 16.2 66.0586 16.2C65.3119 16.2 64.8519 15.3067 64.6786 13.52C63.6919 15.3067 62.4586 16.2 60.9786 16.2C60.0986 16.2 59.3519 15.92 58.7386 15.36C57.5786 14.3333 56.9986 12.9533 56.9986 11.22C56.9986 9.76667 57.4386 8.5 58.3186 7.42C59.1986 6.34 60.3253 5.8 61.6986 5.8C62.6986 5.8 63.6453 6.12667 64.5386 6.78C64.5653 4.3 64.5786 2.78667 64.5786 2.24C64.5786 1.69333 64.6386 1.32 64.7586 1.12C64.8919 0.906666 65.0986 0.799999 65.3786 0.799999ZM70.1564 11.02C70.1564 12.1267 70.4631 13.0667 71.0764 13.84C71.6897 14.6133 72.4564 15 73.3764 15C74.3097 15 75.0964 14.6133 75.7364 13.84C76.3897 13.0533 76.7164 12.1067 76.7164 11C76.7164 9.89333 76.4031 8.95333 75.7764 8.18C75.1631 7.39333 74.3964 7 73.4764 7C72.5697 7 71.7831 7.39333 71.1164 8.18C70.4764 8.96667 70.1564 9.91333 70.1564 11.02ZM70.0564 14.78C69.1764 13.7533 68.7364 12.5 68.7364 11.02C68.7364 9.54 69.1831 8.28667 70.0764 7.26C70.9697 6.22 72.0964 5.7 73.4564 5.7C74.8164 5.7 75.9364 6.21333 76.8164 7.24C77.6964 8.25333 78.1364 9.50667 78.1364 11C78.1364 12.48 77.6831 13.7333 76.7764 14.76C75.8831 15.7867 74.7564 16.3 73.3964 16.3C72.0497 16.3 70.9364 15.7933 70.0564 14.78ZM82.0269 11.42L82.0869 15.18C82.0869 15.86 81.8335 16.2 81.3269 16.2C80.7135 16.2 80.4069 15.7467 80.4069 14.84C80.4069 13.92 80.5402 12.5867 80.8069 10.84C80.8069 10.28 80.7469 9.5 80.6269 8.5C80.5202 7.48667 80.4669 6.87333 80.4669 6.66C80.4669 6.44667 80.5402 6.25333 80.6869 6.08C80.8335 5.89333 81.0202 5.8 81.2469 5.8C81.4735 5.8 81.6602 5.89333 81.8069 6.08C81.9535 6.25333 82.0269 6.43333 82.0269 6.62C82.0269 6.80667 82.0202 7.10667 82.0069 7.52C82.0069 7.93333 82.0069 8.22 82.0069 8.38C82.2602 7.71333 82.6735 7.11333 83.2469 6.58C83.8335 6.06 84.4135 5.8 84.9869 5.8C85.5735 5.8 86.0335 5.92 86.3669 6.16C86.7135 6.38667 86.8869 6.64667 86.8869 6.94C86.8869 7.23333 86.8135 7.46 86.6669 7.62C86.5202 7.78 86.3269 7.86 86.0869 7.86C85.8602 7.86 85.6069 7.74 85.3269 7.5C85.0735 7.24667 84.8602 7.12 84.6869 7.12C84.2469 7.12 83.7335 7.6 83.1469 8.56C82.5602 9.50667 82.1869 10.46 82.0269 11.42Z" fill="white"/>
</svg>
