<svg width="124" height="50" viewBox="0 0 124 50" fill="none" xmlns="http://www.w3.org/2000/svg">
<path d="M11.8495 18.728C14.9642 17.2347 17.8655 16.488 20.5535 16.488C23.2415 16.488 25.1402 17.0213 26.2495 18.088C27.5295 19.0267 28.1695 20.2 28.1695 21.608C28.1695 22.7173 27.8068 23.6987 27.0815 24.552C25.5028 26.2587 23.0495 27.112 19.7215 27.112C18.3562 27.112 16.8415 26.8133 15.1775 26.216C13.5135 25.576 12.0842 24.808 10.8895 23.912C7.26283 26.3867 5.4495 29.736 5.4495 33.96C5.4495 36.8187 6.70817 39.464 9.2255 41.896C11.7428 44.2853 15.1562 45.48 19.4655 45.48C23.8175 45.48 27.1668 44.5627 29.5135 42.728C31.8602 40.8933 33.3535 39.976 33.9935 39.976C35.1882 39.976 35.7855 40.5307 35.7855 41.64C35.7855 42.5787 35.1028 43.688 33.7375 44.968C32.3722 46.248 30.3882 47.4 27.7855 48.424C25.2255 49.448 22.5802 49.96 19.8495 49.96C13.8335 49.96 9.05483 48.3813 5.5135 45.224C2.0575 42.024 0.3295 38.4613 0.3295 34.536C0.3295 28.8187 2.8255 24.3173 7.8175 21.032C5.47083 18.6427 4.2975 15.6347 4.2975 12.008C4.2975 8.38133 5.72683 5.48 8.5855 3.304C11.4868 1.128 14.7508 0.0399971 18.3775 0.0399971C22.0042 0.0399971 25.1828 0.722664 27.9135 2.088C30.6442 3.41066 32.0095 4.88266 32.0095 6.504C32.0095 7.528 31.5828 8.21066 30.7295 8.552C30.4735 8.59466 30.0895 8.616 29.5775 8.616C29.1082 8.616 28.3828 8.296 27.4015 7.656C24.6282 5.56533 21.8335 4.52 19.0175 4.52C16.2442 4.52 13.9402 5.18133 12.1055 6.504C10.0575 7.784 9.0335 9.768 9.0335 12.456C9.0335 15.1013 9.97217 17.192 11.8495 18.728ZM15.1135 21.288L14.4095 21.608C15.9028 22.7173 17.7802 23.272 20.0415 23.272C22.3028 23.272 23.4335 22.7387 23.4335 21.672C23.4335 20.776 22.3882 20.328 20.2975 20.328C18.2068 20.328 16.4788 20.648 15.1135 21.288ZM42.223 30.184L49.071 30.376L55.919 30.184C56.047 30.184 56.1537 30.184 56.239 30.184C57.135 30.184 57.7323 30.44 58.031 30.952C58.3723 31.464 58.543 31.912 58.543 32.296C58.543 32.68 58.3723 33.128 58.031 33.64C57.7323 34.152 57.135 34.408 56.239 34.408C56.1537 34.408 56.047 34.408 55.919 34.408L49.071 34.216L42.223 34.408C42.095 34.408 41.9883 34.408 41.903 34.408C41.007 34.408 40.3883 34.152 40.047 33.64C39.7483 33.128 39.599 32.68 39.599 32.296C39.599 31.912 39.7483 31.464 40.047 30.952C40.3883 30.44 41.007 30.184 41.903 30.184C41.9883 30.184 42.095 30.184 42.223 30.184ZM78.942 8.936L78.814 3.176C78.814 2.49333 79.0487 1.87466 79.518 1.32C79.902 0.765331 80.478 0.487999 81.246 0.487999C82.4407 0.487999 83.3793 1.23466 84.062 2.728C89.9073 16.0827 94.75 26.6 98.59 34.28C102.771 26.216 106.611 17.896 110.11 9.32C111.091 6.93066 112.073 4.62666 113.054 2.408C113.651 1.128 114.526 0.487999 115.678 0.487999C117.427 0.487999 118.302 1.576 118.302 3.752L117.982 25C117.982 35.6667 118.793 42.0453 120.414 44.136C120.627 44.3493 120.947 44.4773 121.374 44.52C121.843 44.5627 122.249 44.6053 122.59 44.648C122.931 44.6907 123.102 44.84 123.102 45.096C123.102 46.376 122.718 47.4213 121.95 48.232C121.225 49.0427 120.329 49.448 119.262 49.448C115.422 49.448 113.502 44.328 113.502 34.088V12.584L101.15 39.72C100.553 41.0427 99.7847 41.704 98.846 41.704C97.8647 41.704 96.99 40.9787 96.222 39.528C96.1793 39.4427 95.2193 37.2027 93.342 32.808C91.4647 28.4133 88.2647 21.5867 83.742 12.328V27.24C83.742 34.024 83.1447 39.0587 81.95 42.344C80.798 45.5867 79.198 47.72 77.15 48.744C75.87 49.3413 74.462 49.64 72.926 49.64C70.4087 49.64 68.4033 48.744 66.91 46.952C65.4593 45.1173 64.734 43.0267 64.734 40.68C64.734 38.3333 65.5233 36.2427 67.102 34.408C68.7233 32.5307 70.6433 31.592 72.862 31.592C73.8007 31.592 74.5687 31.8267 75.166 32.296C75.806 32.7227 76.126 33.3627 76.126 34.216C76.126 35.7947 75.102 36.584 73.054 36.584C72.1153 36.584 71.3047 36.9893 70.622 37.8C69.9393 38.568 69.598 39.5493 69.598 40.744C69.598 41.896 69.918 42.856 70.558 43.624C71.198 44.3493 72.094 44.712 73.246 44.712C75.5073 44.712 77.0433 43.0907 77.854 39.848C78.7073 36.6053 79.134 31.4213 79.134 24.296C79.134 17.128 79.07 12.008 78.942 8.936Z" fill="white"/>
</svg>
