<svg width="107" height="50" viewBox="0 0 107 50" fill="none" xmlns="http://www.w3.org/2000/svg">
<path d="M11.912 18.728C15.0267 17.2347 17.928 16.488 20.616 16.488C23.304 16.488 25.2027 17.0213 26.312 18.088C27.592 19.0267 28.232 20.2 28.232 21.608C28.232 22.7173 27.8693 23.6987 27.144 24.552C25.5653 26.2587 23.112 27.112 19.784 27.112C18.4187 27.112 16.904 26.8133 15.24 26.216C13.576 25.576 12.1467 24.808 10.952 23.912C7.32533 26.3867 5.512 29.736 5.512 33.96C5.512 36.8187 6.77067 39.464 9.288 41.896C11.8053 44.2853 15.2187 45.48 19.528 45.48C23.88 45.48 27.2293 44.5627 29.576 42.728C31.9227 40.8933 33.416 39.976 34.056 39.976C35.2507 39.976 35.848 40.5307 35.848 41.64C35.848 42.5787 35.1653 43.688 33.8 44.968C32.4347 46.248 30.4507 47.4 27.848 48.424C25.288 49.448 22.6427 49.96 19.912 49.96C13.896 49.96 9.11733 48.3813 5.576 45.224C2.12 42.024 0.392 38.4613 0.392 34.536C0.392 28.8187 2.888 24.3173 7.88 21.032C5.53333 18.6427 4.36 15.6347 4.36 12.008C4.36 8.38133 5.78933 5.48 8.648 3.304C11.5493 1.128 14.8133 0.0399971 18.44 0.0399971C22.0667 0.0399971 25.2453 0.722664 27.976 2.088C30.7067 3.41066 32.072 4.88266 32.072 6.504C32.072 7.528 31.6453 8.21066 30.792 8.552C30.536 8.59466 30.152 8.616 29.64 8.616C29.1707 8.616 28.4453 8.296 27.464 7.656C24.6907 5.56533 21.896 4.52 19.08 4.52C16.3067 4.52 14.0027 5.18133 12.168 6.504C10.12 7.784 9.096 9.768 9.096 12.456C9.096 15.1013 10.0347 17.192 11.912 18.728ZM15.176 21.288L14.472 21.608C15.9653 22.7173 17.8427 23.272 20.104 23.272C22.3653 23.272 23.496 22.7387 23.496 21.672C23.496 20.776 22.4507 20.328 20.36 20.328C18.2693 20.328 16.5413 20.648 15.176 21.288ZM42.2855 30.184L49.1335 30.376L55.9815 30.184C56.1095 30.184 56.2162 30.184 56.3015 30.184C57.1975 30.184 57.7948 30.44 58.0935 30.952C58.4348 31.464 58.6055 31.912 58.6055 32.296C58.6055 32.68 58.4348 33.128 58.0935 33.64C57.7948 34.152 57.1975 34.408 56.3015 34.408C56.2162 34.408 56.1095 34.408 55.9815 34.408L49.1335 34.216L42.2855 34.408C42.1575 34.408 42.0508 34.408 41.9655 34.408C41.0695 34.408 40.4508 34.152 40.1095 33.64C39.8108 33.128 39.6615 32.68 39.6615 32.296C39.6615 31.912 39.8108 31.464 40.1095 30.952C40.4508 30.44 41.0695 30.184 41.9655 30.184C42.0508 30.184 42.1575 30.184 42.2855 30.184ZM74.2525 26.088L74.4445 15.208C74.4445 8.25333 72.8658 4.776 69.7085 4.776C68.8125 4.776 68.0872 5.05333 67.5325 5.608C66.9778 6.12 66.7218 6.67467 66.7645 7.272C66.8072 7.82666 66.9992 8.296 67.3405 8.68C67.5965 8.85066 68.0445 9.064 68.6845 9.32C70.0498 9.87466 70.7325 10.6427 70.7325 11.624C70.7325 13.1173 69.9218 13.864 68.3005 13.864C66.6792 13.864 65.2712 13.224 64.0765 11.944C62.9245 10.6213 62.3485 9.04266 62.3485 7.208C62.3485 5.37333 62.9885 3.73066 64.2685 2.28C65.5485 0.786664 67.2552 0.0399971 69.3885 0.0399971C73.4845 0.0399971 76.2152 1.46933 77.5805 4.328C78.7752 6.67467 79.3725 10.1307 79.3725 14.696C79.3298 17.1707 79.2445 20.8827 79.1165 25.832C79.1165 31.7627 79.6925 36.4773 80.8445 39.976C81.9965 43.432 83.5752 45.16 85.5805 45.16C86.9885 45.16 88.2472 43.944 89.3565 41.512C90.5085 39.08 91.9165 35.0053 93.5805 29.288C95.2445 23.528 96.6952 18.472 97.9325 14.12C99.8525 7.12266 100.877 3.45333 101.005 3.112C101.602 1.32 102.541 0.423996 103.821 0.423996C104.631 0.423996 105.229 0.70133 105.613 1.256C106.039 1.81066 106.253 2.38666 106.253 2.984C106.253 3.58133 105.634 5.82133 104.397 9.704C103.202 13.544 101.389 19.56 98.9565 27.752C96.5672 35.9013 94.7538 41.2347 93.5165 43.752C91.4685 47.8907 88.6952 49.96 85.1965 49.96C81.6978 49.96 78.9885 47.8907 77.0685 43.752C75.1912 39.5707 74.2525 33.6827 74.2525 26.088Z" fill="white"/>
</svg>
