<svg width="68" height="15" viewBox="0 0 68 15" fill="none" xmlns="http://www.w3.org/2000/svg">
<path d="M10.5929 6.324C11.1769 6.044 11.7209 5.904 12.2249 5.904C12.7289 5.904 13.0849 6.004 13.2929 6.204C13.5329 6.38 13.6529 6.6 13.6529 6.864C13.6529 7.072 13.5849 7.256 13.4489 7.416C13.1529 7.736 12.6929 7.896 12.0689 7.896C11.8129 7.896 11.5289 7.84 11.2169 7.728C10.9049 7.608 10.6369 7.464 10.4129 7.296C9.73288 7.76 9.39288 8.388 9.39288 9.18C9.39288 9.716 9.62888 10.212 10.1009 10.668C10.5729 11.116 11.2129 11.34 12.0209 11.34C12.8369 11.34 13.4649 11.168 13.9049 10.824C14.3449 10.48 14.6249 10.308 14.7449 10.308C14.9689 10.308 15.0809 10.412 15.0809 10.62C15.0809 10.796 14.9529 11.004 14.6969 11.244C14.4409 11.484 14.0689 11.7 13.5809 11.892C13.1009 12.084 12.6049 12.18 12.0929 12.18C10.9649 12.18 10.0689 11.884 9.40488 11.292C8.75688 10.692 8.43288 10.024 8.43288 9.288C8.43288 8.216 8.90088 7.372 9.83688 6.756C9.39688 6.308 9.17688 5.744 9.17688 5.064C9.17688 4.384 9.44488 3.84 9.98088 3.432C10.5249 3.024 11.1369 2.82 11.8169 2.82C12.4969 2.82 13.0929 2.948 13.6049 3.204C14.1169 3.452 14.3729 3.728 14.3729 4.032C14.3729 4.224 14.2929 4.352 14.1329 4.416C14.0849 4.424 14.0129 4.428 13.9169 4.428C13.8289 4.428 13.6929 4.368 13.5089 4.248C12.9889 3.856 12.4649 3.66 11.9369 3.66C11.4169 3.66 10.9849 3.784 10.6409 4.032C10.2569 4.272 10.0649 4.644 10.0649 5.148C10.0649 5.644 10.2409 6.036 10.5929 6.324ZM11.2049 6.804L11.0729 6.864C11.3529 7.072 11.7049 7.176 12.1289 7.176C12.5529 7.176 12.7649 7.076 12.7649 6.876C12.7649 6.708 12.5689 6.624 12.1769 6.624C11.7849 6.624 11.4609 6.684 11.2049 6.804ZM16.2879 8.472L17.5719 8.508L18.8559 8.472C18.8799 8.472 18.8999 8.472 18.9159 8.472C19.0839 8.472 19.1959 8.52 19.2519 8.616C19.3159 8.712 19.3479 8.796 19.3479 8.868C19.3479 8.94 19.3159 9.024 19.2519 9.12C19.1959 9.216 19.0839 9.264 18.9159 9.264C18.8999 9.264 18.8799 9.264 18.8559 9.264L17.5719 9.228L16.2879 9.264C16.2639 9.264 16.2439 9.264 16.2279 9.264C16.0599 9.264 15.9439 9.216 15.8799 9.12C15.8239 9.024 15.7959 8.94 15.7959 8.868C15.7959 8.796 15.8239 8.712 15.8799 8.616C15.9439 8.52 16.0599 8.472 16.2279 8.472C16.2439 8.472 16.2639 8.472 16.2879 8.472ZM23.1727 4.488L23.1487 3.408C23.1487 3.28 23.1927 3.164 23.2807 3.06C23.3527 2.956 23.4607 2.904 23.6047 2.904C23.8287 2.904 24.0047 3.044 24.1327 3.324C25.2287 5.828 26.1367 7.8 26.8567 9.24C27.6407 7.728 28.3607 6.168 29.0167 4.56C29.2007 4.112 29.3847 3.68 29.5687 3.264C29.6807 3.024 29.8447 2.904 30.0607 2.904C30.3887 2.904 30.5527 3.108 30.5527 3.516L30.4927 7.5C30.4927 9.5 30.6447 10.696 30.9487 11.088C30.9887 11.128 31.0487 11.152 31.1287 11.16C31.2167 11.168 31.2927 11.176 31.3567 11.184C31.4207 11.192 31.4527 11.22 31.4527 11.268C31.4527 11.508 31.3807 11.704 31.2367 11.856C31.1007 12.008 30.9327 12.084 30.7327 12.084C30.0127 12.084 29.6527 11.124 29.6527 9.204V5.172L27.3367 10.26C27.2247 10.508 27.0807 10.632 26.9047 10.632C26.7207 10.632 26.5567 10.496 26.4127 10.224C26.4047 10.208 26.2247 9.788 25.8727 8.964C25.5207 8.14 24.9207 6.86 24.0727 5.124V7.92C24.0727 9.192 23.9607 10.136 23.7367 10.752C23.5207 11.36 23.2207 11.76 22.8367 11.952C22.5967 12.064 22.3327 12.12 22.0447 12.12C21.5727 12.12 21.1967 11.952 20.9167 11.616C20.6447 11.272 20.5087 10.88 20.5087 10.44C20.5087 10 20.6567 9.608 20.9527 9.264C21.2567 8.912 21.6167 8.736 22.0327 8.736C22.2087 8.736 22.3527 8.78 22.4647 8.868C22.5847 8.948 22.6447 9.068 22.6447 9.228C22.6447 9.524 22.4527 9.672 22.0687 9.672C21.8927 9.672 21.7407 9.748 21.6127 9.9C21.4847 10.044 21.4207 10.228 21.4207 10.452C21.4207 10.668 21.4807 10.848 21.6007 10.992C21.7207 11.128 21.8887 11.196 22.1047 11.196C22.5287 11.196 22.8167 10.892 22.9687 10.284C23.1287 9.676 23.2087 8.704 23.2087 7.368C23.2087 6.024 23.1967 5.064 23.1727 4.488ZM37.5181 9.096C37.5181 9.68 37.5581 10.168 37.6381 10.56C37.7261 10.944 37.8341 11.16 37.9621 11.208C38.0101 11.232 38.0661 11.248 38.1301 11.256C38.2021 11.264 38.2501 11.276 38.2741 11.292C38.3061 11.308 38.3221 11.34 38.3221 11.388C38.3221 11.612 38.2621 11.792 38.1421 11.928C38.0221 12.056 37.8461 12.12 37.6141 12.12C37.3901 12.12 37.2141 11.976 37.0861 11.688C36.9581 11.392 36.8941 11.008 36.8941 10.536C36.6781 11 36.3781 11.38 35.9941 11.676C35.6101 11.972 35.1741 12.12 34.6861 12.12C34.2061 12.12 33.7941 11.96 33.4501 11.64C32.8101 11.048 32.4901 10.212 32.4901 9.132C32.4901 8.26 32.7421 7.5 33.2461 6.852C33.7501 6.204 34.3981 5.88 35.1901 5.88C35.7901 5.88 36.3101 6.084 36.7501 6.492C36.7501 6.084 36.9021 5.88 37.2061 5.88C37.5741 5.88 37.7581 6.156 37.7581 6.708C37.7581 7.252 37.6781 8.048 37.5181 9.096ZM36.8221 9.204L36.7621 7.356C36.2901 6.892 35.7901 6.66 35.2621 6.66C34.7341 6.66 34.2821 6.896 33.9061 7.368C33.5301 7.84 33.3421 8.412 33.3421 9.084C33.3421 9.748 33.4661 10.292 33.7141 10.716C33.9621 11.132 34.3061 11.34 34.7461 11.34C35.1861 11.34 35.5901 11.144 35.9581 10.752C36.3341 10.36 36.6221 9.844 36.8221 9.204ZM40.5575 9.252L40.5935 11.508C40.5935 11.916 40.4415 12.12 40.1375 12.12C39.7695 12.12 39.5855 11.848 39.5855 11.304C39.5855 10.752 39.6655 9.952 39.8255 8.904C39.8255 8.568 39.7895 8.1 39.7175 7.5C39.6535 6.892 39.6215 6.524 39.6215 6.396C39.6215 6.268 39.6655 6.152 39.7535 6.048C39.8415 5.936 39.9535 5.88 40.0895 5.88C40.2255 5.88 40.3375 5.936 40.4255 6.048C40.5135 6.152 40.5575 6.26 40.5575 6.372C40.5575 6.484 40.5535 6.664 40.5455 6.912C40.5455 7.16 40.5455 7.332 40.5455 7.428C40.6975 7.028 40.9455 6.668 41.2895 6.348C41.6415 6.036 41.9895 5.88 42.3335 5.88C42.6855 5.88 42.9615 5.952 43.1615 6.096C43.3695 6.232 43.4735 6.388 43.4735 6.564C43.4735 6.74 43.4295 6.876 43.3415 6.972C43.2535 7.068 43.1375 7.116 42.9935 7.116C42.8575 7.116 42.7055 7.044 42.5375 6.9C42.3855 6.748 42.2575 6.672 42.1535 6.672C41.8895 6.672 41.5815 6.96 41.2295 7.536C40.8775 8.104 40.6535 8.676 40.5575 9.252ZM45.432 8.904L45.468 11.508C45.468 11.916 45.316 12.12 45.012 12.12C44.644 12.12 44.46 11.848 44.46 11.304C44.46 10.752 44.54 9.952 44.7 8.904C44.7 8.36 44.664 7.336 44.592 5.832C44.52 4.32 44.484 3.504 44.484 3.384C44.484 3.264 44.524 3.148 44.604 3.036C44.692 2.924 44.78 2.868 44.868 2.868C44.964 2.868 45.052 2.888 45.132 2.928C45.324 3.016 45.42 3.172 45.42 3.396C45.42 3.428 45.42 3.456 45.42 3.48V7.404C46.004 6.388 46.724 5.88 47.58 5.88C48.036 5.88 48.404 6.016 48.684 6.288C48.972 6.552 49.116 6.884 49.116 7.284C49.116 7.94 48.776 8.5 48.096 8.964L47.508 9.348L48.396 10.716C48.5 10.884 48.616 11.012 48.744 11.1C48.88 11.188 48.992 11.24 49.08 11.256C49.176 11.264 49.252 11.276 49.308 11.292C49.364 11.308 49.388 11.34 49.38 11.388C49.38 11.58 49.32 11.752 49.2 11.904C49.08 12.048 48.936 12.12 48.768 12.12C48.736 12.12 48.672 12.12 48.576 12.12C48.376 12.12 48.128 11.876 47.832 11.388C47.824 11.364 47.812 11.344 47.796 11.328C47.788 11.312 47.644 11.08 47.364 10.632C47.084 10.176 46.864 9.836 46.704 9.612C46.496 9.612 46.324 9.556 46.188 9.444C46.052 9.332 45.984 9.172 45.984 8.964C45.984 8.756 46.1 8.604 46.332 8.508C46.396 8.484 46.46 8.472 46.524 8.472C46.708 8.472 46.904 8.572 47.112 8.772C47.416 8.636 47.684 8.428 47.916 8.148C48.156 7.868 48.276 7.616 48.276 7.392C48.276 6.912 48.028 6.672 47.532 6.672C47.084 6.672 46.66 6.896 46.26 7.344C45.86 7.792 45.584 8.312 45.432 8.904ZM53.4954 6.6C52.9674 6.6 52.5234 6.8 52.1634 7.2C51.8114 7.592 51.5794 8.052 51.4674 8.58C51.8994 8.708 52.3834 8.772 52.9194 8.772C53.4634 8.772 53.8994 8.68 54.2274 8.496C54.5554 8.312 54.7194 8.06 54.7194 7.74C54.7194 7.42 54.6074 7.152 54.3834 6.936C54.1674 6.712 53.8714 6.6 53.4954 6.6ZM52.9794 9.528C52.5634 9.528 52.0554 9.468 51.4554 9.348C51.5034 9.916 51.7114 10.4 52.0794 10.8C52.4554 11.2 52.8914 11.4 53.3874 11.4C53.8834 11.4 54.2914 11.28 54.6114 11.04C54.9314 10.792 55.1394 10.668 55.2354 10.668C55.3394 10.668 55.4194 10.7 55.4754 10.764C55.5394 10.82 55.5714 10.892 55.5714 10.98C55.5714 11.204 55.3394 11.46 54.8754 11.748C54.4194 12.036 53.9234 12.18 53.3874 12.18C52.5554 12.18 51.8914 11.888 51.3954 11.304C50.9074 10.712 50.6474 10.008 50.6154 9.192C50.1914 9.056 49.9794 8.848 49.9794 8.568C49.9794 8.384 50.0474 8.264 50.1834 8.208C50.2314 8.192 50.2914 8.184 50.3634 8.184C50.4434 8.184 50.5514 8.22 50.6874 8.292C50.8714 7.564 51.2034 6.972 51.6834 6.516C52.1714 6.052 52.7394 5.82 53.3874 5.82C54.0434 5.82 54.5714 6 54.9714 6.36C55.3714 6.72 55.5714 7.192 55.5714 7.776C55.5714 8.352 55.3234 8.788 54.8274 9.084C54.3314 9.38 53.7154 9.528 52.9794 9.528ZM59.3522 6.756L58.3562 6.732L58.3322 9.576C58.3322 10.312 58.3602 10.792 58.4162 11.016C58.4722 11.232 58.6322 11.34 58.8962 11.34C59.0242 11.34 59.1762 11.3 59.3522 11.22C59.5282 11.132 59.6362 11.088 59.6762 11.088C59.8442 11.088 59.9282 11.172 59.9282 11.34C59.9282 11.508 59.7802 11.68 59.4842 11.856C59.1882 12.032 58.8962 12.12 58.6082 12.12C57.9122 12.12 57.5642 11.608 57.5642 10.584L57.5522 6.732C57.2882 6.756 57.1042 6.768 57.0002 6.768C56.6002 6.768 56.4002 6.636 56.4002 6.372C56.4002 6.108 56.6002 5.976 57.0002 5.976L57.5282 6L57.5042 4.656C57.5042 4.256 57.6562 4.056 57.9602 4.056C58.2642 4.056 58.4162 4.256 58.4162 4.656L58.3802 6.012L59.3522 5.964C59.7522 5.964 59.9522 6.1 59.9522 6.372C59.9522 6.628 59.7522 6.756 59.3522 6.756Z" fill="white"/>
</svg>
